<?xml version="1.0" encoding="UTF-8" standalone="no"?>
<!DOCTYPE svg PUBLIC "-//W3C//DTD SVG 1.1//EN" "http://www.w3.org/Graphics/SVG/1.1/DTD/svg11.dtd">
<svg xmlns="http://www.w3.org/2000/svg" version="1.1" viewBox="0.00 0.00 500.00 500.00">
<g stroke-width="2.00" fill="none" stroke-linecap="butt">
<path stroke="#23756c" vector-effect="non-scaling-stroke" d="
  M 314.58 150.65
  Q 313.89 150.76 313.72 150.97
  Q 310.16 155.41 306.58 159.84
  C 303.84 163.23 301.69 166.74 299.42 170.39"
/>
<path stroke="#369fb9" vector-effect="non-scaling-stroke" d="
  M 349.87 228.56
  Q 343.89 224.85 338.25 221.63
  Q 335.28 219.93 322.83 217.50"
/>
<path stroke="#2993e6" vector-effect="non-scaling-stroke" d="
  M 279.51 301.44
  Q 277.48 297.33 274.93 293.80
  Q 269.87 286.79 264.82 279.62
  Q 262.20 275.89 260.50 272.48
  Q 258.76 268.98 256.99 265.52
  Q 256.72 265.00 256.17 264.79
  Q 255.78 264.65 255.57 264.21
  C 254.83 262.62 254.18 260.92 252.90 259.71
  Q 251.32 258.21 249.47 256.85"
/>
<path stroke="#155995" vector-effect="non-scaling-stroke" d="
  M 249.47 256.85
  Q 250.07 255.48 250.88 255.26"
/>
<path stroke="#166a99" vector-effect="non-scaling-stroke" d="
  M 249.47 256.85
  Q 242.60 265.71 236.89 275.39
  Q 235.24 278.19 230.02 284.52"
/>
<path stroke="#155995" vector-effect="non-scaling-stroke" d="
  M 322.81 218.02
  L 322.94 219.82"
/>
<path stroke="#5f3991" vector-effect="non-scaling-stroke" d="
  M 271.20 153.48
  Q 264.70 161.37 263.16 163.98
  Q 256.99 174.39 249.24 183.86"
/>
<path stroke="#7b49dc" vector-effect="non-scaling-stroke" d="
  M 219.81 138.39
  Q 227.50 149.27 235.07 159.67
  Q 241.19 168.09 243.37 175.98"
/>
<path stroke="#513fd5" vector-effect="non-scaling-stroke" d="
  M 197.77 176.61
  Q 195.65 174.74 192.14 170.99
  Q 190.66 169.41 188.35 168.48
  Q 187.42 168.11 186.59 167.57
  Q 185.81 167.05 184.90 166.67
  Q 183.66 166.15 182.48 165.29
  Q 178.72 162.57 174.25 160.82"
/>
<path stroke="#7f29ba" vector-effect="non-scaling-stroke" d="
  M 177.25 225.95
  Q 174.53 226.01 171.88 225.64
  Q 169.45 225.30 167.47 224.20
  Q 163.95 222.24 160.21 220.87
  Q 156.10 219.36 151.76 215.98
  Q 151.03 215.40 149.51 216.23"
/>
<path stroke="#3169e0" vector-effect="non-scaling-stroke" d="
  M 218.75 137.54
  Q 217.65 138.41 216.24 138.74
  Q 210.49 140.07 204.79 142.08
  C 203.77 142.44 202.81 143.11 201.97 143.79
  Q 201.52 144.16 200.93 144.14
  Q 200.42 144.13 200.13 144.60
  A 0.82 0.80 4.8 0 1 199.69 144.96
  C 198.95 145.23 198.42 145.32 197.82 145.90
  Q 196.81 146.85 195.76 147.61
  Q 195.02 148.15 194.02 148.43
  Q 193.01 148.72 192.05 149.17
  Q 191.78 149.29 191.49 149.23
  Q 190.55 149.01 189.67 149.48
  Q 189.25 149.71 188.79 149.80
  L 187.63 150.02"
/>
<path stroke="#ca6455" vector-effect="non-scaling-stroke" d="
  M 202.34 267.71
  Q 195.74 278.62 187.55 287.54"
/>
<path stroke="#7262de" vector-effect="non-scaling-stroke" d="
  M 76.78 343.37
  L 85.72 355.67"
/>
<path stroke="#155995" vector-effect="non-scaling-stroke" d="
  M 85.72 355.67
  Q 85.61 357.34 83.75 357.08"
/>
<path stroke="#6054c5" vector-effect="non-scaling-stroke" d="
  M 69.29 353.36
  Q 67.51 353.51 65.50 353.15
  Q 63.72 352.83 63.11 354.86"
/>
<path stroke="#5f3991" vector-effect="non-scaling-stroke" d="
  M 91.54 347.64
  Q 88.39 350.59 85.72 355.67"
/>
<path stroke="#166a99" vector-effect="non-scaling-stroke" d="
  M 92.44 352.24
  L 84.80 359.68"
/>
<path stroke="#155995" vector-effect="non-scaling-stroke" d="
  M 101.18 354.73
  Q 101.96 356.26 100.15 357.10"
/>
<path stroke="#2993e6" vector-effect="non-scaling-stroke" d="
  M 96.81 360.23
  L 94.39 360.84
  Q 93.91 360.96 93.47 360.74
  Q 91.90 359.99 91.63 358.41
  Q 91.49 357.61 92.31 355.76
  Q 93.15 353.84 92.44 352.24"
/>
<path stroke="#155995" vector-effect="non-scaling-stroke" d="
  M 92.44 352.24
  Q 94.04 350.88 92.67 347.06"
/>
</g>
<path fill="#022f48" d="
  M 314.58 150.65
  Q 313.89 150.76 313.72 150.97
  Q 310.16 155.41 306.58 159.84
  C 303.84 163.23 301.69 166.74 299.42 170.39
  C 295.52 165.22 291.52 159.62 286.61 155.40
  C 283.36 152.61 280.65 149.28 276.82 147.32
  Q 276.17 147.00 276.61 146.42
  Q 277.93 144.70 279.20 142.98
  C 281.01 140.54 282.09 137.89 284.11 135.61
  Q 285.50 134.03 286.78 132.23
  Q 291.78 125.14 297.09 117.42
  Q 299.11 114.47 301.64 113.18
  Q 305.45 111.22 310.50 111.31
  Q 326.96 111.60 342.62 111.42
  Q 343.41 111.41 342.94 112.04
  C 341.68 113.77 340.09 115.14 338.82 116.85
  Q 333.27 124.35 327.36 132.39
  Q 326.00 134.25 324.43 135.98
  C 322.91 137.65 322.06 139.72 320.71 141.57
  Q 317.60 145.81 314.65 150.09
  Q 314.24 150.68 314.58 150.65
  Z"
/>
<path fill="#2882e2" d="
  M 218.75 137.54
  Q 217.65 138.41 216.24 138.74
  Q 210.49 140.07 204.79 142.08
  C 203.77 142.44 202.81 143.11 201.97 143.79
  Q 201.52 144.16 200.93 144.14
  Q 200.42 144.13 200.13 144.60
  A 0.82 0.80 4.8 0 1 199.69 144.96
  C 198.95 145.23 198.42 145.32 197.82 145.90
  Q 196.81 146.85 195.76 147.61
  Q 195.02 148.15 194.02 148.43
  Q 193.01 148.72 192.05 149.17
  Q 191.78 149.29 191.49 149.23
  Q 190.55 149.01 189.67 149.48
  Q 189.25 149.71 188.79 149.80
  L 187.63 150.02
  L 157.88 112.56
  Q 157.30 111.84 158.22 111.83
  Q 172.51 111.71 191.59 111.88
  Q 196.83 111.93 201.30 114.19
  Q 203.43 115.27 205.19 117.83
  Q 211.59 127.18 218.50 136.74
  Q 218.64 136.93 218.75 137.54
  Z"
/>
<path fill="#3a50de" d="
  M 218.75 137.54
  Q 219.40 138.23 219.81 138.39
  Q 227.50 149.27 235.07 159.67
  Q 241.19 168.09 243.37 175.98
  C 241.14 174.22 239.38 171.90 237.37 170.55
  C 224.17 161.69 209.18 167.18 197.77 176.61
  Q 195.65 174.74 192.14 170.99
  Q 190.66 169.41 188.35 168.48
  Q 187.42 168.11 186.59 167.57
  Q 185.81 167.05 184.90 166.67
  Q 183.66 166.15 182.48 165.29
  Q 178.72 162.57 174.25 160.82
  L 187.63 150.02
  L 188.79 149.80
  Q 189.25 149.71 189.67 149.48
  Q 190.55 149.01 191.49 149.23
  Q 191.78 149.29 192.05 149.17
  Q 193.01 148.72 194.02 148.43
  Q 195.02 148.15 195.76 147.61
  Q 196.81 146.85 197.82 145.90
  C 198.42 145.32 198.95 145.23 199.69 144.96
  A 0.82 0.80 4.8 0 0 200.13 144.60
  Q 200.42 144.13 200.93 144.14
  Q 201.52 144.16 201.97 143.79
  C 202.81 143.11 203.77 142.44 204.79 142.08
  Q 210.49 140.07 216.24 138.74
  Q 217.65 138.41 218.75 137.54
  Z"
/>
<path fill="#bc42d9" d="
  M 271.20 153.48
  Q 264.70 161.37 263.16 163.98
  Q 256.99 174.39 249.24 183.86
  L 243.37 175.98
  Q 241.19 168.09 235.07 159.67
  Q 227.50 149.27 219.81 138.39
  Q 237.79 135.69 253.21 141.83
  Q 262.83 145.66 271.20 153.48
  Z"
/>
<path fill="#43bb8f" d="
  M 314.58 150.65
  Q 325.76 158.90 335.00 172.00
  Q 340.32 179.55 342.65 184.35
  Q 344.28 187.71 348.03 199.99
  Q 351.61 211.73 349.87 228.56
  Q 343.89 224.85 338.25 221.63
  Q 335.28 219.93 322.83 217.50
  Q 323.37 207.71 318.99 198.28
  Q 313.38 186.18 305.06 177.04
  C 303.15 174.94 301.42 172.52 299.42 170.39
  C 301.69 166.74 303.84 163.23 306.58 159.84
  Q 310.16 155.41 313.72 150.97
  Q 313.89 150.76 314.58 150.65
  Z"
/>
<path fill="#022f48" d="
  M 271.20 153.48
  Q 275.99 157.62 279.72 162.80
  Q 285.17 170.38 285.86 171.24
  Q 292.47 179.44 298.91 187.78
  Q 301.13 190.66 303.06 193.72
  C 304.77 196.42 307.10 198.59 309.08 201.19
  Q 315.10 209.10 321.36 216.90
  Q 321.96 217.65 322.81 218.02
  L 322.94 219.82
  Q 303.66 219.68 284.25 219.67
  C 280.50 219.66 275.31 219.25 273.01 216.02
  Q 261.19 199.43 249.24 183.86
  Q 256.99 174.39 263.16 163.98
  Q 264.70 161.37 271.20 153.48
  Z"
/>
<path fill="#672dcb" d="
  M 174.25 160.82
  Q 178.72 162.57 182.48 165.29
  Q 183.66 166.15 184.90 166.67
  Q 185.81 167.05 186.59 167.57
  Q 187.42 168.11 188.35 168.48
  Q 190.66 169.41 192.14 170.99
  Q 195.65 174.74 197.77 176.61
  Q 192.21 180.82 187.59 187.07
  Q 174.82 204.38 177.25 225.95
  Q 174.53 226.01 171.88 225.64
  Q 169.45 225.30 167.47 224.20
  Q 163.95 222.24 160.21 220.87
  Q 156.10 219.36 151.76 215.98
  Q 151.03 215.40 149.51 216.23
  C 149.89 205.86 151.79 197.67 155.30 188.27
  Q 157.52 182.32 160.28 177.90
  Q 166.12 168.55 174.25 160.82
  Z"
/>
<path fill="#9725a8" d="
  M 177.25 225.95
  C 178.50 238.36 186.07 249.72 194.36 258.66
  Q 198.50 263.12 202.34 267.71
  Q 195.74 278.62 187.55 287.54
  C 183.74 284.80 179.65 282.20 176.37 279.20
  Q 166.36 270.04 159.19 258.04
  C 156.67 253.82 155.08 248.38 153.45 243.58
  Q 148.95 230.34 149.51 216.23
  Q 151.03 215.40 151.76 215.98
  Q 156.10 219.36 160.21 220.87
  Q 163.95 222.24 167.47 224.20
  Q 169.45 225.30 171.88 225.64
  Q 174.53 226.01 177.25 225.95
  Z"
/>
<path fill="#2882e2" d="
  M 322.83 217.50
  Q 335.28 219.93 338.25 221.63
  Q 343.89 224.85 349.87 228.56
  Q 349.50 234.21 347.90 240.13
  C 345.94 247.34 343.39 255.32 339.31 261.89
  Q 329.39 277.86 313.25 288.99
  Q 312.29 289.66 313.10 290.49
  Q 313.52 290.92 313.86 291.37
  Q 323.76 304.54 334.55 318.50
  C 337.36 322.12 340.69 325.36 343.31 329.16
  A 0.52 0.52 0.0 0 1 342.88 329.97
  Q 324.77 329.91 307.15 329.76
  C 302.20 329.71 297.97 326.45 295.18 322.55
  Q 288.39 313.08 280.93 302.06
  Q 280.71 301.74 280.35 301.60
  Q 279.86 301.41 279.51 301.44
  Q 277.48 297.33 274.93 293.80
  Q 269.87 286.79 264.82 279.62
  Q 262.20 275.89 260.50 272.48
  Q 258.76 268.98 256.99 265.52
  Q 256.72 265.00 256.17 264.79
  Q 255.78 264.65 255.57 264.21
  C 254.83 262.62 254.18 260.92 252.90 259.71
  Q 251.32 258.21 249.47 256.85
  Q 250.07 255.48 250.88 255.26
  Q 255.66 262.18 261.02 266.74
  C 270.11 274.46 283.73 273.24 293.82 267.60
  C 311.26 257.84 323.33 240.13 322.94 219.82
  L 322.81 218.02
  Q 322.91 217.66 322.83 217.50
  Z"
/>
<path fill="#022f48" d="
  M 250.88 255.26
  Q 250.07 255.48 249.47 256.85
  Q 242.60 265.71 236.89 275.39
  Q 235.24 278.19 230.02 284.52
  Q 224.75 279.76 220.65 274.06
  Q 214.23 265.12 214.20 265.08
  Q 207.65 256.75 201.06 248.44
  Q 198.92 245.74 197.04 242.96
  C 195.33 240.43 193.07 238.50 191.24 236.04
  Q 184.90 227.55 177.24 218.32
  A 0.22 0.21 -19.8 0 1 177.41 217.97
  Q 198.11 217.91 217.03 218.08
  Q 222.06 218.12 225.21 220.81
  Q 226.05 221.52 230.06 226.87
  Q 239.30 239.19 248.49 251.51
  Q 250.20 253.82 250.88 255.26
  Z"
/>
<path fill="#29a4e9" d="
  M 249.47 256.85
  Q 251.32 258.21 252.90 259.71
  C 254.18 260.92 254.83 262.62 255.57 264.21
  Q 255.78 264.65 256.17 264.79
  Q 256.72 265.00 256.99 265.52
  Q 258.76 268.98 260.50 272.48
  Q 262.20 275.89 264.82 279.62
  Q 269.87 286.79 274.93 293.80
  Q 277.48 297.33 279.51 301.44
  Q 273.28 301.99 267.75 301.94
  Q 244.78 301.75 230.02 284.52
  Q 235.24 278.19 236.89 275.39
  Q 242.60 265.71 249.47 256.85
  Z"
/>
<path fill="#fda202" d="
  M 202.34 267.71
  C 206.28 272.90 210.19 278.20 214.83 282.52
  Q 219.69 287.05 224.87 290.89
  Q 225.73 291.53 225.15 292.43
  Q 215.76 307.03 206.84 320.61
  C 203.13 326.27 198.99 330.21 191.88 330.23
  Q 174.48 330.29 155.98 330.50
  Q 154.39 330.52 155.36 329.27
  L 187.55 287.54
  Q 195.74 278.62 202.34 267.71
  Z"
/>
<path fill="#022f48" d="
  M 284.70 347.01
  C 282.63 342.03 276.68 340.59 272.36 343.66
  A 1.47 1.44 81.7 0 0 271.81 344.41
  Q 270.46 348.61 275.20 350.37
  Q 280.46 352.33 285.35 354.78
  Q 295.20 359.74 292.40 370.19
  C 290.13 378.71 281.26 381.63 273.20 380.40
  C 267.13 379.48 259.93 374.71 260.23 367.86
  A 0.92 0.92 0.0 0 1 260.86 367.03
  L 267.89 364.69
  Q 268.52 364.48 268.74 365.10
  Q 270.85 370.96 276.73 371.42
  Q 281.52 371.80 283.37 367.75
  C 284.61 365.05 281.91 362.52 279.61 361.82
  C 274.82 360.35 268.10 358.52 264.71 354.58
  C 257.60 346.35 262.85 334.82 273.23 333.04
  Q 287.69 330.55 292.83 343.72
  Q 293.21 344.71 292.22 345.10
  L 286.01 347.56
  Q 285.08 347.93 284.70 347.01
  Z"
/>
<path fill="#2882e2" d="
  M 76.78 343.37
  L 85.72 355.67
  Q 85.61 357.34 83.75 357.08
  C 80.94 352.70 76.36 347.41 70.56 350.60
  Q 69.57 351.14 69.29 353.36
  Q 67.51 353.51 65.50 353.15
  Q 63.72 352.83 63.11 354.86
  Q 62.38 351.74 63.97 349.16
  Q 64.24 348.74 64.22 348.24
  Q 64.17 346.88 63.30 345.92
  Q 59.63 341.88 55.80 337.16
  Q 54.48 335.54 56.56 335.71
  Q 61.41 336.10 66.74 335.89
  A 4.25 4.23 -21.7 0 1 70.09 337.32
  Q 72.18 339.70 73.97 342.27
  Q 74.91 343.62 76.78 343.37
  Z"
/>
<path fill="#2882e2" d="
  M 101.18 354.73
  Q 101.96 356.26 100.15 357.10
  Q 98.30 358.27 96.81 360.23
  L 94.39 360.84
  Q 93.91 360.96 93.47 360.74
  Q 91.90 359.99 91.63 358.41
  Q 91.49 357.61 92.31 355.76
  Q 93.15 353.84 92.44 352.24
  Q 94.04 350.88 92.67 347.06
  L 100.35 336.24
  A 0.37 0.36 -72.3 0 1 100.65 336.08
  Q 106.01 335.95 112.43 336.02
  A 0.10 0.10 0.0 0 1 112.51 336.19
  L 99.41 352.42
  Q 99.07 352.84 99.48 353.20
  L 101.18 354.73
  Z"
/>
<path fill="#34cff0" d="
  M 116.26 364.26
  A 0.65 0.64 -21.6 0 0 115.90 365.07
  Q 117.67 369.84 122.53 371.53
  C 125.77 372.66 130.58 372.09 133.14 369.28
  Q 133.80 368.55 134.56 367.91
  Q 134.95 367.58 135.46 367.60
  L 142.37 367.85
  A 0.88 0.88 0.0 0 1 143.10 369.16
  Q 135.26 382.93 120.54 379.81
  Q 117.81 379.24 115.54 377.46
  Q 104.68 369.01 108.23 355.56
  Q 109.33 351.37 113.23 347.26
  Q 116.61 343.69 121.23 343.05
  C 131.08 341.68 139.19 344.18 143.22 353.92
  C 144.30 356.55 144.27 360.29 144.27 363.25
  A 0.90 0.90 0.0 0 1 143.36 364.15
  Q 130.98 364.11 117.17 364.09
  Q 116.66 364.09 116.26 364.26
  Z
  M 116.93 357.32
  L 134.57 357.26
  A 0.11 0.11 0.0 0 0 134.68 357.15
  L 134.68 357.11
  A 8.80 6.71 -0.2 0 0 125.86 350.43
  L 125.60 350.43
  A 8.80 6.71 -0.2 0 0 116.82 357.17
  L 116.82 357.21
  A 0.11 0.11 0.0 0 0 116.93 357.32
  Z"
/>
<path fill="#34cff0" d="
  M 159.37 346.27
  A 0.56 0.56 0.0 0 0 160.31 346.37
  C 161.09 345.36 161.81 344.26 163.09 343.85
  Q 167.49 342.43 172.15 343.53
  A 1.04 1.02 -83.7 0 1 172.95 344.54
  L 172.95 350.75
  Q 172.95 351.43 172.28 351.34
  C 165.86 350.52 158.30 353.70 158.36 361.11
  Q 158.43 370.37 158.49 378.84
  Q 158.49 379.78 157.55 379.78
  L 150.39 379.75
  Q 149.29 379.74 149.29 378.64
  L 149.30 344.23
  A 0.70 0.70 0.0 0 1 150.02 343.53
  L 157.16 343.66
  Q 158.14 343.68 158.56 344.56
  L 159.37 346.27
  Z"
/>
<path fill="#34cff0" d="
  M 194.49 367.04
  C 188.86 364.04 178.41 365.48 176.80 357.32
  Q 175.79 352.18 177.98 347.61
  C 178.95 345.59 181.47 344.18 183.55 343.68
  C 190.97 341.89 200.02 342.56 202.83 350.74
  A 0.64 0.63 72.8 0 1 202.41 351.55
  Q 199.21 352.49 197.05 354.61
  A 0.46 0.46 0.0 0 1 196.34 354.53
  C 194.11 350.94 187.81 348.45 185.48 353.23
  A 1.18 1.17 46.2 0 0 185.46 354.20
  Q 186.09 355.73 187.81 356.26
  C 193.23 357.93 204.09 360.34 204.36 367.29
  Q 204.52 371.52 202.44 374.61
  C 197.64 381.73 187.57 381.75 180.47 378.36
  C 178.08 377.22 176.74 374.54 175.09 372.59
  Q 174.13 371.45 175.44 370.73
  L 180.99 367.69
  Q 182.58 366.82 183.11 368.55
  C 184.62 373.50 196.77 374.29 195.18 367.92
  Q 195.03 367.33 194.49 367.04
  Z"
/>
<path fill="#34cff0" d="
  M 227.13 378.16
  Q 219.30 382.52 211.72 378.23
  C 206.96 375.53 205.14 367.39 208.87 363.15
  C 212.93 358.52 220.48 357.48 226.21 357.04
  C 229.55 356.78 227.67 352.98 225.91 352.08
  Q 219.94 349.01 216.04 354.87
  Q 215.64 355.47 215.07 355.03
  Q 212.21 352.83 208.44 352.58
  A 0.58 0.58 0.0 0 1 207.96 351.72
  Q 213.36 341.85 224.68 343.10
  C 231.93 343.90 237.16 348.06 237.07 355.67
  Q 236.92 368.02 237.03 378.87
  Q 237.04 379.63 236.28 379.64
  L 230.53 379.64
  A 2.17 2.13 -25.0 0 1 229.17 379.16
  L 228.05 378.24
  Q 227.62 377.89 227.13 378.16
  Z
  M 220.64 364.85
  Q 217.39 365.03 216.75 368.27
  Q 216.36 370.24 217.66 371.47
  Q 220.44 374.12 224.44 372.08
  Q 228.21 370.15 227.96 365.83
  A 1.24 1.23 -1.5 0 0 226.72 364.66
  Q 223.76 364.68 220.64 364.85
  Z"
/>
<path fill="#022f48" d="
  M 358.56 378.28
  C 350.12 382.60 338.48 380.76 338.25 369.32
  Q 338.14 363.95 343.16 360.47
  C 347.04 357.78 353.12 357.62 357.81 356.89
  A 1.92 1.92 0.0 0 0 359.44 355.13
  Q 359.56 353.50 358.26 352.46
  C 355.10 349.95 350.09 351.27 347.32 353.98
  Q 346.94 354.34 346.42 354.28
  L 339.71 353.49
  A 0.54 0.53 12.7 0 1 339.26 352.79
  Q 340.83 348.10 344.28 345.17
  C 347.64 342.31 355.27 342.85 359.35 343.61
  C 365.14 344.69 367.79 350.52 367.77 355.82
  Q 367.72 367.95 367.75 379.26
  Q 367.75 379.77 367.25 379.77
  L 359.94 379.82
  Q 359.55 379.82 359.48 379.44
  L 359.34 378.67
  Q 359.21 377.95 358.56 378.28
  Z
  M 352.14 364.86
  C 345.55 365.54 345.87 373.30 352.21 372.92
  Q 359.18 372.49 359.52 365.14
  Q 359.55 364.46 358.87 364.47
  Q 355.52 364.51 352.14 364.86
  Z"
/>
<path fill="#022f48" d="
  M 407.17 352.61
  L 407.23 344.29
  Q 407.23 343.57 407.96 343.58
  L 415.75 343.71
  Q 416.53 343.72 416.51 344.50
  L 416.46 345.98
  A 0.48 0.47 70.9 0 0 417.24 346.36
  C 422.23 342.19 431.39 342.17 436.69 345.88
  C 445.06 351.74 447.52 362.57 442.50 371.51
  C 437.35 380.68 425.09 383.25 416.83 376.97
  Q 416.27 376.55 416.26 377.25
  L 416.26 390.31
  Q 416.26 390.87 415.70 390.87
  L 407.86 390.91
  Q 407.05 390.92 407.05 390.11
  L 407.07 372.06
  Q 407.07 371.13 406.58 371.92
  Q 400.47 381.73 388.21 380.26
  C 385.45 379.93 382.92 378.52 380.84 376.80
  A 0.24 0.24 0.0 0 0 380.45 376.98
  L 380.51 390.74
  Q 380.51 390.98 380.26 390.98
  L 371.40 390.95
  Q 371.17 390.95 371.17 390.72
  L 370.95 344.03
  Q 370.95 343.51 371.47 343.52
  L 379.76 343.72
  A 0.52 0.52 0.0 0 1 380.27 344.27
  L 380.17 345.76
  Q 380.08 347.07 381.08 346.22
  Q 384.37 343.44 389.34 343.13
  Q 401.39 342.36 406.70 352.72
  Q 407.16 353.62 407.17 352.61
  Z
  M 391.9119 371.4077
  A 10.16 9.93 81.1 0 0 400.1504 359.8337
  A 10.16 9.93 81.1 0 0 388.7681 351.3323
  A 10.16 9.93 81.1 0 0 380.5296 362.9063
  A 10.16 9.93 81.1 0 0 391.9119 371.4077
  Z
  M 426.7564 371.5425
  A 10.26 9.77 85.1 0 0 435.6143 360.4855
  A 10.26 9.77 85.1 0 0 425.0036 351.0975
  A 10.26 9.77 85.1 0 0 416.1457 362.1545
  A 10.26 9.77 85.1 0 0 426.7564 371.5425
  Z"
/>
<path fill="#bc42d9" d="
  M 76.78 343.37
  Q 85.27 342.59 91.54 347.64
  Q 88.39 350.59 85.72 355.67
  L 76.78 343.37
  Z"
/>
<path fill="#022f48" d="
  M 326.55 364.87
  A 0.47 0.46 4.3 0 0 327.01 364.48
  L 330.07 344.33
  Q 330.19 343.60 330.93 343.60
  L 339.01 343.60
  A 0.76 0.76 0.0 0 1 339.75 344.53
  L 331.55 379.30
  Q 331.44 379.79 330.93 379.79
  L 323.22 379.72
  Q 322.61 379.72 322.48 379.12
  Q 320.05 368.39 316.70 356.78
  Q 316.45 355.91 316.23 356.78
  L 310.55 379.22
  Q 310.42 379.71 309.91 379.71
  L 302.36 379.66
  A 0.91 0.91 0.0 0 1 301.48 378.92
  C 299.35 367.62 296.57 356.39 293.93 344.48
  A 0.60 0.60 0.0 0 1 294.51 343.74
  L 301.99 343.72
  Q 302.65 343.72 302.76 344.38
  L 305.95 363.98
  Q 306.50 367.37 307.32 364.04
  L 312.20 344.20
  Q 312.36 343.55 313.03 343.56
  L 320.57 343.66
  A 1.03 1.03 0.0 0 1 321.58 344.56
  Q 322.86 354.51 326.03 364.50
  Q 326.15 364.87 326.55 364.87
  Z"
/>
<path fill="#022f48" d="
  M 92.67 347.06
  Q 94.04 350.88 92.44 352.24
  L 84.80 359.68
  L 83.75 357.08
  Q 85.61 357.34 85.72 355.67
  Q 88.39 350.59 91.54 347.64
  Q 92.27 347.50 92.67 347.06
  Z"
/>
<path fill="#29a4e9" d="
  M 92.44 352.24
  Q 93.15 353.84 92.31 355.76
  Q 91.49 357.61 91.63 358.41
  Q 91.90 359.99 93.47 360.74
  Q 93.91 360.96 94.39 360.84
  L 96.81 360.23
  L 99.18 363.06
  Q 99.44 363.37 99.22 363.71
  L 95.04 370.16
  Q 94.69 370.71 95.16 371.16
  Q 97.49 373.36 98.97 375.89
  Q 100.19 377.97 98.20 376.60
  Q 96.85 375.67 95.68 374.19
  A 1.81 1.81 0.0 0 0 92.68 374.41
  Q 90.69 377.91 86.31 378.09
  Q 80.08 378.35 73.48 378.17
  Q 72.79 378.15 72.98 377.48
  Q 73.21 376.65 73.76 375.98
  Q 77.09 372.01 80.00 368.16
  Q 81.45 366.24 82.58 364.03
  Q 83.68 361.90 84.80 359.68
  L 92.44 352.24
  Z"
/>
<path fill="#9725a8" d="
  M 69.29 353.36
  L 79.98 363.37
  Q 80.40 363.76 80.10 364.26
  L 76.37 370.43
  A 0.46 0.46 0.0 0 1 75.64 370.51
  Q 71.72 366.36 67.58 362.94
  Q 64.50 360.39 63.11 354.86
  Q 63.72 352.83 65.50 353.15
  Q 67.51 353.51 69.29 353.36
  Z"
/>
<path fill="#022f48" d="
  M 101.18 354.73
  Q 103.23 355.85 103.87 356.62
  Q 104.15 356.95 104.05 357.30
  Q 103.91 357.82 103.40 357.64
  Q 101.84 357.11 100.15 357.10
  Q 101.96 356.26 101.18 354.73
  Z"
/>
</svg>
